<?xml version="1.0" standalone="no"?>
<!DOCTYPE svg PUBLIC "-//W3C//DTD SVG 20010904//EN"
 "http://www.w3.org/TR/2001/REC-SVG-20010904/DTD/svg10.dtd">
<svg version="1.0" xmlns="http://www.w3.org/2000/svg"
 width="512.000000pt" height="512.000000pt" viewBox="0 0 512.000000 512.000000"
 preserveAspectRatio="xMidYMid meet">
<metadata>
Created by potrace 1.16, written by Peter Selinger 2001-2019
</metadata>
<g transform="translate(0.000000,512.000000) scale(0.100000,-0.100000)"
fill="#000000" stroke="none">
<path d="M2330 5105 c-432 -76 -803 -355 -996 -750 -56 -116 -105 -272 -123
-392 -6 -39 -11 -134 -11 -210 0 -219 39 -390 135 -588 81 -169 207 -331 349
-450 l48 -41 -113 -43 c-228 -88 -493 -239 -684 -392 -443 -354 -772 -870
-905 -1419 -29 -122 -32 -146 -28 -245 4 -93 10 -122 36 -190 74 -187 224
-319 417 -370 52 -13 219 -15 1364 -15 l1305 0 44 21 c26 13 54 38 70 62 23
35 27 51 27 117 0 66 -4 82 -27 117 -16 24 -44 49 -70 62 l-44 21 -1246 0
c-796 0 -1265 4 -1299 10 -61 11 -89 29 -133 83 -42 53 -46 121 -12 252 218
855 961 1514 1837 1629 184 24 285 28 439 16 273 -21 496 -77 755 -189 124
-54 232 -35 291 50 40 58 46 149 14 215 -29 59 -72 87 -246 155 l-135 54 47
40 c142 119 268 281 349 450 96 198 135 369 135 588 0 162 -11 244 -51 387
-102 362 -368 677 -714 846 -116 56 -272 105 -392 123 -96 15 -340 12 -433 -4z
m480 -424 c327 -95 576 -345 672 -677 20 -69 23 -100 22 -249 0 -156 -2 -177
-28 -260 -97 -319 -345 -562 -667 -655 -106 -31 -316 -39 -430 -15 -350 70
-630 326 -735 670 -26 83 -28 104 -28 260 -1 149 2 180 22 249 102 354 374
611 728 690 102 23 344 16 444 -13z"/>
<path d="M4072 1879 c-25 -12 -55 -39 -70 -62 l-27 -40 -3 -314 -3 -313 -301
0 c-287 0 -304 -1 -346 -21 -26 -13 -54 -38 -70 -62 -23 -35 -27 -51 -27 -117
0 -66 4 -82 27 -117 16 -24 44 -49 70 -62 42 -20 59 -21 346 -21 l302 0 0
-302 c0 -287 1 -304 21 -346 13 -26 38 -54 62 -70 35 -23 51 -27 117 -27 66 0
82 4 117 27 24 16 49 44 62 70 20 42 21 59 21 346 l0 302 302 0 c287 0 304 1
346 21 26 13 54 38 70 62 23 35 27 51 27 117 0 66 -4 82 -27 117 -16 24 -44
49 -70 62 -42 20 -59 21 -346 21 l-302 0 0 302 c0 287 -1 304 -21 346 -31 64
-85 96 -168 100 -53 2 -75 -1 -109 -19z"/>
</g>
</svg>
