<svg version="1.1" xmlns="http://www.w3.org/2000/svg" xmlns:xlink="http://www.w3.org/1999/xlink" width="512.000000pt" height="512.000000pt" viewBox="0,0,256,256"><g fill="#86888a" fill-rule="nonzero" stroke="none" stroke-width="1" stroke-linecap="butt" stroke-linejoin="miter" stroke-miterlimit="10" stroke-dasharray="" stroke-dashoffset="0" font-family="none" font-weight="none" font-size="none" text-anchor="none" style="mix-blend-mode: normal"><g transform="translate(0,-0.02181) scale(0.5,0.5)"><g transform="translate(0,512) scale(0.1,-0.1)"><path d="M2266,4654c-220,-30 -472,-110 -679,-216c-606,-310 -1026,-906 -1121,-1586c-21,-148 -21,-436 0,-584c131,-939 875,-1680 1811,-1803c147,-19 420,-19 568,0c934,123 1678,864 1809,1803c21,148 21,436 0,584c-131,939 -875,1680 -1809,1803c-142,18 -441,18 -579,-1zM2710,4356c266,-14 581,-122 829,-283c408,-265 690,-681 793,-1169c20,-96 23,-137 23,-344c0,-209 -3,-247 -23,-345c-62,-287 -191,-565 -359,-774c-481,-598 -1264,-830 -1986,-590c-381,127 -718,389 -941,732c-117,178 -211,410 -258,634c-20,95 -23,137 -23,343c0,206 3,248 23,343c103,489 385,905 793,1170c253,165 566,269 859,286c63,4 129,6 145,4c17,-1 73,-4 125,-7z"></path><path d="M2410,3145v-435h-435h-435v-150v-150h435h435v-435v-435h150h150v435v435h435h435v150v150h-435h-435v435v435h-150h-150z"></path></g></g></g></svg>