<?xml version="1.0" standalone="no"?>
<!DOCTYPE svg PUBLIC "-//W3C//DTD SVG 20010904//EN"
 "http://www.w3.org/TR/2001/REC-SVG-20010904/DTD/svg10.dtd">
<svg version="1.0" xmlns="http://www.w3.org/2000/svg"
 width="512.000000pt" height="512.000000pt" viewBox="0 0 512.000000 512.000000"
 preserveAspectRatio="xMidYMid meet">
<metadata>
Created by potrace 1.16, written by Peter Selinger 2001-2019
</metadata>
<g transform="translate(0.000000,512.000000) scale(0.100000,-0.100000)"
fill="#000000" stroke="none">
<path d="M2266 4654 c-220 -30 -472 -110 -679 -216 -606 -310 -1026 -906
-1121 -1586 -21 -148 -21 -436 0 -584 131 -939 875 -1680 1811 -1803 147 -19
420 -19 568 0 934 123 1678 864 1809 1803 21 148 21 436 0 584 -131 939 -875
1680 -1809 1803 -142 18 -441 18 -579 -1z m444 -298 c266 -14 581 -122 829
-283 408 -265 690 -681 793 -1169 20 -96 23 -137 23 -344 0 -209 -3 -247 -23
-345 -62 -287 -191 -565 -359 -774 -481 -598 -1264 -830 -1986 -590 -381 127
-718 389 -941 732 -117 178 -211 410 -258 634 -20 95 -23 137 -23 343 0 206 3
248 23 343 103 489 385 905 793 1170 253 165 566 269 859 286 63 4 129 6 145
4 17 -1 73 -4 125 -7z"/>
<path d="M2410 3145 l0 -435 -435 0 -435 0 0 -150 0 -150 435 0 435 0 0 -435
0 -435 150 0 150 0 0 435 0 435 435 0 435 0 0 150 0 150 -435 0 -435 0 0 435
0 435 -150 0 -150 0 0 -435z"/>
</g>
</svg>
