<?xml version="1.0" standalone="no"?>
<!DOCTYPE svg PUBLIC "-//W3C//DTD SVG 20010904//EN"
 "http://www.w3.org/TR/2001/REC-SVG-20010904/DTD/svg10.dtd">
<svg version="1.0" xmlns="http://www.w3.org/2000/svg"
 width="512.000000pt" height="512.000000pt" viewBox="0 0 512.000000 512.000000"
 preserveAspectRatio="xMidYMid meet">
<metadata>
Created by potrace 1.16, written by Peter Selinger 2001-2019
</metadata>
<g transform="translate(0.000000,512.000000) scale(0.100000,-0.100000)"
fill="#000000" stroke="none">
<path d="M1258 4596 c-101 -36 -163 -92 -207 -186 l-26 -55 0 -1795 0 -1795
26 -55 c36 -77 77 -121 151 -161 l63 -34 1295 0 1295 0 46 23 c75 37 125 87
161 160 l33 67 3 1325 2 1325 -597 597 -598 598 -805 0 c-636 -1 -813 -4 -842
-14z m1302 -796 c0 -439 1 -462 21 -514 27 -73 96 -148 167 -183 l57 -28 473
-3 472 -3 0 -1104 0 -1105 -1190 0 -1190 0 0 1700 0 1700 595 0 595 0 0 -460z
m695 -40 l340 -340 -343 0 -342 0 0 340 c0 187 1 340 3 340 1 0 155 -153 342
-340z"/>
<path d="M2387 2564 c-4 -4 -7 -83 -7 -176 l0 -168 -170 0 -170 0 0 -175 0
-175 170 0 170 0 0 -170 0 -170 180 0 180 0 0 170 0 170 170 0 170 0 0 175 0
175 -170 0 -170 0 -2 173 -3 172 -171 3 c-93 1 -173 -1 -177 -4z"/>
</g>
</svg>
