<?xml version="1.0" standalone="no"?>
<!DOCTYPE svg PUBLIC "-//W3C//DTD SVG 20010904//EN"
 "http://www.w3.org/TR/2001/REC-SVG-20010904/DTD/svg10.dtd">
<svg version="1.0" xmlns="http://www.w3.org/2000/svg"
 width="512.000000pt" height="512.000000pt" viewBox="0 0 512.000000 512.000000"
 preserveAspectRatio="xMidYMid meet">
<metadata>
Created by potrace 1.16, written by Peter Selinger 2001-2019
</metadata>
<g transform="translate(0.000000,512.000000) scale(0.100000,-0.100000)"
fill="#000000" stroke="none">
<path d="M1291 4625 c-353 -77 -625 -309 -748 -637 -65 -173 -63 -120 -63
-1428 0 -1308 -2 -1255 63 -1428 54 -144 118 -243 232 -357 113 -113 213 -178
353 -231 179 -67 116 -64 1431 -64 1309 0 1256 -2 1429 63 136 51 242 119 348
222 134 132 212 261 271 450 l28 90 3 868 3 869 -22 34 c-57 93 -209 98 -272
10 -22 -31 -22 -34 -27 -532 l-5 -502 -230 185 c-282 226 -338 265 -439 298
-63 21 -98 26 -175 26 -115 0 -171 -12 -267 -57 -88 -41 -141 -89 -296 -263
-67 -75 -129 -144 -139 -155 -16 -18 -33 -4 -478 401 -254 230 -486 434 -517
453 -91 55 -156 73 -280 78 -194 7 -261 -20 -516 -210 l-173 -129 -3 43 c-2
24 -2 259 1 523 3 442 5 486 24 550 70 249 247 426 498 499 67 19 100 20 895
24 789 3 826 4 855 22 97 60 98 220 2 279 -34 21 -38 21 -878 20 -680 0 -856
-3 -908 -14z m284 -1956 c23 -11 236 -196 498 -435 l457 -415 -37 -43 c-21
-24 -225 -253 -453 -509 l-414 -467 -51 0 c-360 1 -618 165 -726 462 -41 112
-49 209 -49 629 l0 367 268 200 c147 110 277 205 289 211 64 33 148 33 218 0z
m1996 -462 c25 -12 203 -148 397 -302 l351 -280 0 -50 c3 -386 -190 -656 -539
-753 -47 -13 -176 -16 -878 -19 -677 -3 -822 -2 -816 9 28 45 1211 1363 1242
1383 72 48 158 52 243 12z"/>
<path d="M3959 4616 c-60 -41 -69 -73 -69 -245 l0 -151 -148 0 c-133 0 -152
-2 -192 -22 -50 -26 -90 -89 -90 -143 0 -41 38 -114 73 -139 25 -19 46 -21
192 -24 l164 -3 3 -164 c3 -146 5 -167 24 -192 25 -35 98 -73 140 -73 51 0
115 40 141 90 21 39 23 56 23 192 l0 148 153 0 c141 0 155 2 190 23 56 34 77
71 77 138 0 62 -22 105 -73 143 -26 19 -45 21 -187 24 l-159 3 -3 159 c-3 176
-8 190 -78 238 -47 32 -132 31 -181 -2z"/>
<path d="M1940 4047 c-91 -26 -173 -97 -213 -186 -32 -70 -30 -188 5 -262 32
-69 88 -127 154 -160 41 -20 64 -24 139 -24 78 0 97 4 147 28 32 16 75 48 97
74 112 127 107 327 -12 446 -77 77 -214 113 -317 84z"/>
</g>
</svg>
