<?xml version="1.0" standalone="no"?>
<!DOCTYPE svg PUBLIC "-//W3C//DTD SVG 20010904//EN"
 "http://www.w3.org/TR/2001/REC-SVG-20010904/DTD/svg10.dtd">
<svg version="1.0" xmlns="http://www.w3.org/2000/svg"
 width="512.000000pt" height="512.000000pt" viewBox="0 0 512.000000 512.000000"
 preserveAspectRatio="xMidYMid meet">
<metadata>
Created by potrace 1.16, written by Peter Selinger 2001-2019
</metadata>
<g transform="translate(0.000000,512.000000) scale(0.100000,-0.100000)"
fill="#000000" stroke="none">
<path d="M1335 4736 c-141 -45 -234 -146 -264 -284 -8 -38 -11 -597 -11 -2000
l0 -1948 22 -44 c13 -24 35 -52 49 -63 33 -24 107 -33 148 -19 16 6 310 189
653 408 343 219 628 397 633 397 6 0 277 -172 602 -381 326 -210 613 -393 638
-408 39 -22 54 -26 101 -22 67 6 101 29 132 88 l22 44 0 1948 c0 1403 -3 1962
-11 2000 -25 118 -98 209 -209 262 l-65 31 -1200 2 c-950 1 -1208 -1 -1240
-11z m2378 -334 c16 -17 17 -152 15 -1791 l-3 -1772 -540 347 c-296 190 -550
350 -563 355 -13 5 -42 9 -65 9 -50 0 -9 25 -655 -388 -277 -177 -506 -322
-508 -322 -2 0 -4 797 -4 1772 0 1634 1 1773 17 1790 15 17 64 18 1153 18
1089 0 1138 -1 1153 -18z"/>
<path d="M2500 3889 c-14 -5 -36 -20 -48 -32 -49 -45 -52 -62 -52 -286 l0
-210 -226 -3 -225 -3 -39 -41 c-61 -65 -66 -152 -13 -214 48 -57 62 -60 293
-60 l210 0 0 -214 c0 -204 1 -214 23 -246 38 -57 71 -75 137 -75 66 1 99 18
138 75 21 32 22 42 22 246 l0 214 214 0 c204 0 214 1 246 23 57 38 75 71 75
137 0 66 -18 99 -75 138 -32 21 -42 22 -246 22 l-214 0 0 214 c0 204 -1 214
-22 246 -13 18 -35 42 -50 53 -31 23 -111 32 -148 16z"/>
</g>
</svg>
