<?xml version="1.0" standalone="no"?>
<!DOCTYPE svg PUBLIC "-//W3C//DTD SVG 20010904//EN"
 "http://www.w3.org/TR/2001/REC-SVG-20010904/DTD/svg10.dtd">
<svg version="1.0" xmlns="http://www.w3.org/2000/svg"
 width="512.000000pt" height="512.000000pt" viewBox="0 0 512.000000 512.000000"
 preserveAspectRatio="xMidYMid meet">
<metadata>
Created by potrace 1.16, written by Peter Selinger 2001-2019
</metadata>
<g transform="translate(0.000000,512.000000) scale(0.100000,-0.100000)"
fill="#000000" stroke="none">
<path d="M1308 5104 c-76 -23 -167 -92 -215 -162 -80 -117 -73 95 -71 -2403
l3 -2234 33 -68 c43 -86 113 -156 199 -199 l68 -33 1235 0 1235 0 68 33 c86
43 156 113 199 199 l33 68 0 2255 0 2255 -33 68 c-43 87 -117 161 -201 201
l-66 31 -1220 2 c-1045 1 -1227 0 -1267 -13z m633 -396 c53 -111 70 -136 99
-153 34 -19 53 -20 520 -20 467 0 486 1 520 20 29 17 46 42 99 153 l65 132
210 0 c116 0 229 -5 250 -10 22 -5 53 -23 70 -40 l31 -30 3 -2188 c2 -2154 2
-2187 -18 -2219 -10 -18 -31 -40 -47 -50 -26 -17 -86 -18 -1183 -18 -1097 0
-1157 1 -1183 18 -16 10 -37 32 -47 50 -20 31 -20 69 -20 2205 0 2334 -3 2199
49 2246 32 29 72 34 302 35 l215 1 65 -132z"/>
<path d="M2230 952 c-19 -9 -43 -32 -54 -51 -41 -70 -14 -169 54 -203 31 -16
69 -18 330 -18 330 0 346 3 384 69 41 70 14 169 -54 203 -31 16 -69 18 -330
18 -261 0 -299 -2 -330 -18z"/>
</g>
</svg>
