<?xml version="1.0" standalone="no"?>
<!DOCTYPE svg PUBLIC "-//W3C//DTD SVG 20010904//EN"
 "http://www.w3.org/TR/2001/REC-SVG-20010904/DTD/svg10.dtd">
<svg version="1.0" xmlns="http://www.w3.org/2000/svg"
 width="512.000000pt" height="512.000000pt" viewBox="0 0 512.000000 512.000000"
 preserveAspectRatio="xMidYMid meet">
<metadata>
Created by potrace 1.16, written by Peter Selinger 2001-2019
</metadata>
<g transform="translate(0.000000,512.000000) scale(0.100000,-0.100000)"
fill="#000000" stroke="none">
<path d="M2315 4810 c-502 -45 -940 -192 -1312 -440 -154 -102 -235 -168 -362
-293 -319 -314 -526 -688 -612 -1103 -26 -129 -37 -440 -19 -581 60 -488 356
-961 785 -1260 l84 -58 -5 -45 c-9 -70 -57 -202 -105 -287 -34 -61 -82 -116
-216 -254 -95 -97 -173 -179 -173 -184 0 -4 123 -5 273 -2 223 4 288 9 362 25
245 55 449 159 641 328 58 51 62 53 95 44 19 -6 93 -21 164 -35 761 -145 1583
-33 2152 294 539 309 897 788 1019 1366 32 148 44 464 24 622 -53 436 -237
816 -549 1137 -385 395 -909 633 -1561 711 -162 19 -545 27 -685 15z m490
-310 c383 -29 692 -106 982 -245 388 -186 680 -465 853 -813 121 -245 170
-456 170 -729 0 -812 -577 -1484 -1468 -1709 -518 -130 -1107 -120 -1625 28
l-109 31 -89 -95 c-103 -111 -196 -183 -315 -244 -114 -59 -118 -58 -88 18 50
127 84 309 84 443 l-1 60 -82 50 c-414 250 -697 625 -782 1035 -134 642 206
1362 842 1783 450 299 1013 432 1628 387z"/>
</g>
</svg>
