<svg version="1.1" xmlns="http://www.w3.org/2000/svg" xmlns:xlink="http://www.w3.org/1999/xlink" width="512.000000pt" height="512.000000pt" viewBox="0,0,256,256"><g fill="#86888a" fill-rule="nonzero" stroke="none" stroke-width="1" stroke-linecap="butt" stroke-linejoin="miter" stroke-miterlimit="10" stroke-dasharray="" stroke-dashoffset="0" font-family="none" font-weight="none" font-size="none" text-anchor="none" style="mix-blend-mode: normal"><g transform="translate(0,0.1019) scale(0.5,0.5)"><g transform="translate(0,512) scale(0.1,-0.1)"><path d="M2265,5106c-108,-34 -209,-109 -264,-194c-48,-76 -71,-155 -78,-269l-6,-102l-36,-12c-20,-6 -89,-33 -154,-61l-117,-50l-69,64c-163,151 -369,186 -556,94c-60,-30 -96,-61 -242,-208c-144,-145 -177,-184 -202,-238c-88,-187 -52,-390 97,-551l64,-70l-35,-77c-19,-42 -47,-111 -62,-153l-27,-76l-101,-6c-214,-12 -353,-102 -439,-283l-33,-69v-285v-285l33,-69c86,-181 225,-271 439,-283l101,-6l27,-76c15,-42 43,-111 62,-153l35,-77l-64,-70c-113,-122 -161,-263 -139,-409c21,-139 50,-185 244,-380c194,-195 250,-232 383,-252c156,-24 297,25 426,148l57,54l118,-50c65,-28 134,-55 154,-61l36,-12l6,-102c12,-214 101,-353 283,-439l69,-33h285h285l69,33c181,85 271,225 283,438l6,101l76,28c42,15 111,43 154,63l77,35l58,-55c129,-123 271,-172 428,-148c131,20 188,58 381,252c144,145 177,184 202,238c87,187 52,391 -97,551l-64,69l50,117c28,65 56,134 63,154l12,36l101,6c213,12 353,102 438,283l33,69v285v285l-33,69c-85,181 -225,271 -438,283l-101,6l-12,36c-7,20 -35,89 -63,154l-50,117l64,69c151,163 186,369 94,556c-30,60 -61,96 -208,242c-145,144 -184,177 -238,202c-187,88 -390,52 -551,-97l-70,-64l-77,34c-42,20 -112,48 -154,64l-78,29v60c0,191 -73,342 -210,436c-104,71 -146,79 -433,78c-174,0 -264,-4 -292,-13zM2793,4796c22,-11 51,-37 65,-59c26,-39 27,-48 32,-206c7,-226 1,-218 215,-286c66,-21 181,-70 255,-107c128,-65 138,-69 192,-65l57,3l115,112c129,125 162,142 239,122c35,-10 67,-37 189,-158c121,-122 148,-154 158,-189c20,-77 3,-110 -122,-239l-112,-115l-3,-57c-4,-54 0,-64 65,-192c37,-74 86,-189 107,-255c68,-214 60,-208 286,-215c158,-5 167,-6 206,-32c71,-47 78,-75 78,-298c0,-223 -7,-251 -78,-298c-39,-26 -48,-27 -206,-32c-226,-7 -218,-1 -286,-215c-21,-66 -70,-181 -107,-255c-65,-128 -69,-138 -65,-192l3,-57l112,-115c125,-129 142,-162 122,-238c-10,-36 -37,-68 -158,-190c-122,-121 -154,-148 -189,-158c-77,-20 -110,-3 -239,122l-115,112l-57,3c-54,4 -64,0 -192,-65c-74,-37 -189,-86 -255,-107c-214,-68 -208,-60 -215,-286c-5,-158 -6,-167 -32,-206c-47,-71 -75,-78 -298,-78c-223,0 -251,7 -298,78c-26,39 -27,48 -32,206c-7,226 -1,218 -215,286c-66,21 -181,70 -255,107c-128,65 -138,69 -192,65l-57,-3l-115,-112c-129,-125 -162,-142 -239,-122c-35,10 -67,37 -189,158c-121,122 -148,154 -158,190c-20,76 -3,109 122,238l112,115l3,57c4,54 0,64 -65,192c-37,74 -86,189 -107,255c-68,214 -60,208 -286,215c-158,5 -167,6 -206,32c-71,47 -78,75 -78,298c0,223 7,251 78,298c39,26 48,27 206,32c226,7 218,1 286,215c21,66 70,181 107,255c65,128 69,138 65,192l-3,57l-112,115c-125,129 -142,162 -122,239c10,35 37,67 158,189c164,164 192,180 271,158c33,-9 66,-35 157,-122c114,-110 115,-111 169,-116c52,-4 62,0 197,67c79,39 199,89 267,111c69,22 135,47 146,54c44,29 55,74 55,218c0,157 9,197 55,243c47,47 90,54 295,52c148,-2 181,-5 213,-21z"></path><path d="M2412,3669c-153,-20 -356,-96 -478,-180c-87,-59 -181,-147 -249,-231c-79,-99 -175,-286 -205,-403c-49,-190 -49,-402 0,-590c24,-89 100,-258 151,-331c198,-289 514,-468 864,-490c358,-23 711,134 940,418c79,99 175,286 205,403c49,190 49,400 0,590c-30,117 -126,304 -205,403c-113,140 -232,233 -398,312c-194,93 -411,127 -625,99zM2755,3344c291,-78 504,-289 587,-582c32,-110 31,-295 0,-406c-81,-283 -295,-497 -579,-578c-111,-32 -295,-32 -407,0c-286,82 -496,292 -578,578c-29,103 -31,295 -4,394c91,331 345,559 681,614c56,8 239,-3 300,-20z"></path></g></g></g></svg>