<?xml version="1.0" standalone="no"?>
<!DOCTYPE svg PUBLIC "-//W3C//DTD SVG 20010904//EN"
 "http://www.w3.org/TR/2001/REC-SVG-20010904/DTD/svg10.dtd">
<svg version="1.0" xmlns="http://www.w3.org/2000/svg"
 width="512.000000pt" height="512.000000pt" viewBox="0 0 512.000000 512.000000"
 preserveAspectRatio="xMidYMid meet">
<metadata>
Created by potrace 1.16, written by Peter Selinger 2001-2019
</metadata>
<g transform="translate(0.000000,512.000000) scale(0.100000,-0.100000)"
fill="#000000" stroke="none">
<path d="M2064 4817 c-468 -166 -863 -308 -878 -316 -42 -23 -66 -71 -66 -131
0 -63 25 -109 72 -134 18 -9 166 -63 328 -120 l295 -104 5 -453 c5 -498 3
-478 67 -520 27 -18 73 -19 1083 -19 1010 0 1056 1 1083 19 64 42 62 22 67
520 l5 453 195 69 c107 38 196 69 198 69 1 0 2 -143 2 -317 0 -295 2 -320 19
-347 31 -46 69 -66 131 -66 62 0 100 20 131 66 18 27 19 55 19 484 0 426 -1
457 -19 483 -10 15 -28 35 -39 43 -12 8 -410 152 -884 320 -716 252 -871 304
-913 303 -39 -1 -244 -70 -901 -302z m1523 -229 c331 -117 603 -215 603 -218
0 -10 -1211 -431 -1229 -428 -30 5 -1211 423 -1211 428 0 7 1190 427 1214 429
11 0 291 -95 623 -211z m-1057 -828 c281 -99 409 -140 441 -140 31 0 159 40
441 140 218 77 399 140 402 140 3 0 6 -130 6 -290 l0 -290 -850 0 -850 0 0
290 c0 160 3 290 7 290 4 0 185 -63 403 -140z"/>
<path d="M4518 2381 c-70 -23 -146 -70 -190 -119 -18 -20 -157 -199 -308 -396
l-275 -360 -7 60 c-22 193 -159 356 -346 414 -61 19 -94 20 -598 20 l-534 0
-62 46 c-291 214 -693 261 -1014 119 -31 -14 -58 -25 -60 -25 -2 0 -4 15 -4
33 0 38 -27 82 -66 108 -27 18 -55 19 -494 19 -439 0 -467 -1 -494 -19 -15
-10 -37 -32 -47 -47 -18 -28 -19 -67 -19 -1084 0 -1017 1 -1056 19 -1084 10
-15 32 -37 47 -47 27 -18 55 -19 494 -19 439 0 467 1 494 19 55 36 66 66 66
178 l0 103 1328 2 1327 3 90 28 c212 65 401 189 525 344 76 95 651 986 695
1076 26 54 30 75 33 167 3 87 0 116 -17 168 -50 146 -153 247 -300 292 -82 26
-205 26 -283 1z m210 -305 c52 -27 75 -62 80 -121 5 -66 38 -8 -331 -585 -267
-416 -299 -463 -383 -546 -78 -79 -104 -98 -185 -137 -183 -88 -60 -81 -1506
-85 l-1283 -3 0 584 0 585 63 40 c140 91 253 126 407 126 189 -1 329 -57 493
-196 l39 -33 581 -5 c571 -5 583 -5 622 -26 71 -38 105 -95 105 -174 0 -79
-34 -136 -105 -174 -39 -21 -51 -21 -630 -26 -534 -5 -592 -7 -614 -22 -42
-30 -61 -69 -61 -128 0 -62 20 -100 66 -131 28 -18 60 -19 713 -19 771 0 746
-2 906 75 156 75 187 108 542 572 177 230 332 424 345 430 33 16 104 16 136
-1z m-3908 -926 l0 -850 -260 0 -260 0 0 850 0 850 260 0 260 0 0 -850z"/>
</g>
</svg>
