<?xml version="1.0" standalone="no"?>
<!DOCTYPE svg PUBLIC "-//W3C//DTD SVG 20010904//EN"
 "http://www.w3.org/TR/2001/REC-SVG-20010904/DTD/svg10.dtd">
<svg version="1.0" xmlns="http://www.w3.org/2000/svg"
 width="512.000000pt" height="512.000000pt" viewBox="0 0 512.000000 512.000000"
 preserveAspectRatio="xMidYMid meet">
<metadata>
Created by potrace 1.16, written by Peter Selinger 2001-2019
</metadata>
<g transform="translate(0.000000,512.000000) scale(0.100000,-0.100000)"
fill="#000000" stroke="none">
<path d="M1242 4820 c-358 -30 -684 -204 -912 -487 -218 -272 -330 -607 -330
-989 1 -420 144 -778 480 -1199 132 -165 510 -544 785 -786 333 -294 1200
-1036 1225 -1049 30 -16 110 -16 140 0 25 13 892 755 1225 1049 275 242 653
621 785 786 336 421 479 779 480 1199 0 530 -223 984 -619 1254 -111 76 -188
115 -314 157 -147 49 -258 66 -427 66 -221 0 -400 -42 -575 -135 -219 -116
-447 -342 -578 -573 -23 -40 -44 -72 -47 -72 -3 0 -24 32 -47 72 -95 168 -263
357 -418 472 -244 180 -537 261 -853 235z m298 -322 c30 -5 91 -24 135 -40
311 -118 552 -388 715 -801 45 -115 65 -139 131 -159 30 -8 48 -8 78 0 66 20
86 44 131 159 148 376 368 641 635 768 260 122 557 119 830 -9 296 -140 504
-418 591 -791 26 -111 27 -414 2 -531 -55 -252 -190 -507 -416 -783 -113 -138
-451 -476 -674 -674 -218 -194 -1131 -977 -1138 -977 -7 0 -920 783 -1138 977
-223 198 -561 536 -674 674 -226 276 -361 531 -416 783 -25 117 -24 420 2 531
69 297 211 529 419 686 223 169 516 239 787 187z"/>
</g>
</svg>
