<?xml version="1.0" standalone="no"?>
<!DOCTYPE svg PUBLIC "-//W3C//DTD SVG 20010904//EN"
 "http://www.w3.org/TR/2001/REC-SVG-20010904/DTD/svg10.dtd">
<svg version="1.0" xmlns="http://www.w3.org/2000/svg"
 width="512.000000pt" height="512.000000pt" viewBox="0 0 512.000000 512.000000"
 preserveAspectRatio="xMidYMid meet">
<metadata>
Created by potrace 1.16, written by Peter Selinger 2001-2019
</metadata>
<g transform="translate(0.000000,512.000000) scale(0.100000,-0.100000)"
fill="#000000" stroke="none">
<path d="M1098 5105 c-220 -54 -410 -207 -508 -409 -87 -180 -80 -5 -80 -2136
0 -2131 -7 -1956 80 -2136 102 -210 309 -371 535 -414 43 -8 451 -10 1470 -8
l1410 3 80 28 c121 42 209 99 306 197 71 71 94 103 133 181 92 188 86 72 86
1568 0 1450 3 1369 -62 1495 -27 52 -142 172 -747 779 -394 395 -743 739 -775
763 -65 49 -104 69 -181 90 -73 20 -1663 19 -1747 -1z m2299 -1197 l693 -693
0 -1240 c0 -823 -4 -1253 -10 -1277 -16 -57 -69 -119 -129 -150 l-53 -28
-1338 0 -1338 0 -53 28 c-60 31 -113 93 -129 150 -14 52 -14 3672 0 3724 16
57 69 119 129 150 l53 28 742 0 741 0 692 -692z"/>
<path d="M2442 3304 c-29 -14 -65 -42 -82 -62 -55 -67 -60 -98 -60 -404 l0
-278 -289 0 -289 0 -53 -28 c-209 -109 -168 -432 62 -481 28 -6 163 -11 309
-11 l260 0 0 -272 c0 -157 5 -289 10 -310 17 -59 69 -120 129 -150 144 -73
330 2 371 150 5 21 10 153 10 310 l0 272 260 0 c146 0 281 5 309 11 230 49
271 372 62 481 l-53 28 -289 0 -289 0 0 278 c0 224 -3 287 -15 323 -36 104
-130 169 -245 169 -51 0 -78 -6 -118 -26z"/>
</g>
</svg>
