<?xml version="1.0" standalone="no"?>
<!DOCTYPE svg PUBLIC "-//W3C//DTD SVG 20010904//EN"
 "http://www.w3.org/TR/2001/REC-SVG-20010904/DTD/svg10.dtd">
<svg version="1.0" xmlns="http://www.w3.org/2000/svg"
 width="512.000000pt" height="512.000000pt" viewBox="0 0 512.000000 512.000000"
 preserveAspectRatio="xMidYMid meet">
<metadata>
Created by potrace 1.16, written by Peter Selinger 2001-2019
</metadata>
<g transform="translate(0.000000,512.000000) scale(0.100000,-0.100000)"
fill="#000000" stroke="none">
<path d="M3638 4400 c-74 -13 -147 -39 -218 -77 -56 -31 -226 -196 -1283
-1252 -670 -669 -1241 -1242 -1269 -1274 l-51 -58 -54 -468 c-61 -522 -61
-508 7 -544 35 -18 41 -18 509 31 l474 49 1267 1269 1268 1269 46 95 c98 200
100 404 6 595 -85 174 -238 301 -420 350 -68 19 -219 27 -282 15z m243 -230
c123 -42 211 -121 268 -240 63 -134 54 -296 -26 -423 -14 -23 -104 -121 -199
-218 l-174 -175 -315 315 -315 316 178 178 c179 181 227 218 317 249 71 24
190 23 266 -2z m-1259 -2183 l-973 -973 -351 -37 c-193 -20 -352 -36 -354 -34
-1 1 17 161 40 355 l41 352 970 970 970 970 315 -315 315 -315 -973 -973z"/>
</g>
</svg>
