<?xml version="1.0" standalone="no"?>
<!DOCTYPE svg PUBLIC "-//W3C//DTD SVG 20010904//EN"
 "http://www.w3.org/TR/2001/REC-SVG-20010904/DTD/svg10.dtd">
<svg version="1.0" xmlns="http://www.w3.org/2000/svg"
 width="512.000000pt" height="512.000000pt" viewBox="0 0 512.000000 512.000000"
 preserveAspectRatio="xMidYMid meet">
<metadata>
Created by potrace 1.16, written by Peter Selinger 2001-2019
</metadata>
<g transform="translate(0.000000,512.000000) scale(0.100000,-0.100000)"
fill="#000000" stroke="none">
<path d="M2485 4179 c-38 -21 -956 -944 -976 -981 -25 -49 -24 -111 3 -159 37
-67 109 -97 183 -78 34 9 91 61 373 342 l332 332 0 -925 0 -925 24 -36 c63
-92 209 -92 272 0 l24 36 0 925 0 925 328 -327 c180 -180 340 -332 355 -338
71 -26 159 4 198 66 28 46 31 123 6 170 -18 36 -927 937 -972 965 -34 21 -118
25 -150 8z"/>
<path d="M4219 2431 c-45 -15 -67 -30 -91 -63 -23 -33 -23 -37 -28 -383 -5
-327 -7 -354 -27 -408 -48 -128 -154 -238 -280 -289 l-58 -23 -1149 -3 c-1264
-3 -1211 -5 -1321 58 -70 40 -156 128 -189 194 -52 102 -56 136 -56 471 0 302
-1 312 -22 355 -57 112 -205 120 -282 16 -20 -27 -21 -39 -21 -394 0 -353 1
-370 23 -446 65 -224 211 -400 417 -501 173 -86 69 -80 1405 -80 1347 0 1259
-5 1446 85 168 81 318 241 387 412 51 127 57 188 57 556 0 335 0 339 -22 372
-13 18 -34 41 -48 52 -29 21 -103 31 -141 19z"/>
</g>
</svg>
