<?xml version="1.0" standalone="no"?>
<!DOCTYPE svg PUBLIC "-//W3C//DTD SVG 20010904//EN"
 "http://www.w3.org/TR/2001/REC-SVG-20010904/DTD/svg10.dtd">
<svg version="1.0" xmlns="http://www.w3.org/2000/svg"
 width="512.000000pt" height="512.000000pt" viewBox="0 0 512.000000 512.000000"
 preserveAspectRatio="xMidYMid meet">
<metadata>
Created by potrace 1.16, written by Peter Selinger 2001-2019
</metadata>
<g transform="translate(0.000000,512.000000) scale(0.100000,-0.100000)"
fill="#000000" stroke="none">
<path d="M402 4464 c-52 -27 -82 -79 -82 -143 0 -53 8 -68 493 -906 l494 -852
-475 -819 c-260 -451 -483 -837 -494 -858 -60 -117 15 -246 143 -246 34 0 464
179 2138 887 1153 487 2108 895 2124 905 74 52 82 181 14 246 -24 23 -526 240
-2117 913 -1873 793 -2091 883 -2145 886 -42 2 -70 -2 -93 -13z m1928 -1104
c784 -332 1439 -609 1455 -616 25 -11 -155 -13 -1080 -14 l-1111 0 -264 457
c-146 252 -309 533 -362 625 -53 93 -89 164 -80 159 9 -5 658 -280 1442 -611z
m1485 -966 c-244 -106 -2931 -1240 -2933 -1238 -2 1 158 282 355 623 l358 620
1115 0 c613 0 1111 -3 1105 -5z"/>
</g>
</svg>
