<?xml version="1.0" standalone="no"?>
<!DOCTYPE svg PUBLIC "-//W3C//DTD SVG 20010904//EN"
 "http://www.w3.org/TR/2001/REC-SVG-20010904/DTD/svg10.dtd">
<svg version="1.0" xmlns="http://www.w3.org/2000/svg"
 width="512.000000pt" height="512.000000pt" viewBox="0 0 512.000000 512.000000"
 preserveAspectRatio="xMidYMid meet">
<metadata>
Created by potrace 1.16, written by Peter Selinger 2001-2019
</metadata>
<g transform="translate(0.000000,512.000000) scale(0.100000,-0.100000)"
fill="#000000" stroke="none">
<path d="M2225 5114 c-485 -49 -890 -127 -1291 -250 -66 -20 -134 -41 -153
-46 -76 -22 -307 -110 -338 -129 -18 -12 -45 -40 -59 -64 l-25 -43 4 -889 c3
-859 4 -893 25 -1025 86 -534 254 -970 537 -1393 332 -497 767 -881 1300
-1148 270 -135 331 -149 453 -101 106 42 347 165 467 238 244 150 422 291 635
505 544 546 880 1249 965 2021 12 108 15 298 15 966 l0 830 -29 46 c-36 57
-88 83 -321 161 -439 148 -872 246 -1330 303 -128 16 -746 29 -855 18z m550
-408 c391 -13 903 -112 1409 -273 l178 -57 -5 -711 c-3 -425 -10 -750 -16
-810 -42 -369 -136 -695 -296 -1020 -145 -294 -323 -544 -560 -781 -152 -153
-289 -264 -472 -384 -144 -95 -418 -240 -453 -240 -35 0 -309 145 -453 240
-185 121 -321 232 -472 384 -478 480 -762 1067 -851 1761 -12 95 -17 272 -21
840 l-5 720 53 18 c465 152 819 235 1229 288 152 19 468 38 550 32 19 -1 103
-5 185 -7z"/>
<path d="M3460 3579 c-19 -11 -275 -260 -567 -552 l-533 -532 -237 237 c-131
129 -252 243 -270 252 -19 10 -57 16 -94 16 -122 0 -199 -78 -199 -201 0 -55
5 -72 29 -110 37 -57 636 -652 678 -673 19 -10 57 -16 96 -16 53 0 70 5 108
29 58 38 1252 1236 1273 1278 10 19 16 57 16 94 0 79 -32 137 -94 174 -57 33
-154 35 -206 4z"/>
</g>
</svg>
