<?xml version="1.0" standalone="no"?>
<!DOCTYPE svg PUBLIC "-//W3C//DTD SVG 20010904//EN"
 "http://www.w3.org/TR/2001/REC-SVG-20010904/DTD/svg10.dtd">
<svg version="1.0" xmlns="http://www.w3.org/2000/svg"
 width="512.000000pt" height="512.000000pt" viewBox="0 0 512.000000 512.000000"
 preserveAspectRatio="xMidYMid meet">
<metadata>
Created by potrace 1.16, written by Peter Selinger 2001-2019
</metadata>
<g transform="translate(0.000000,512.000000) scale(0.100000,-0.100000)"
fill="#000000" stroke="none">
<path d="M410 4266 c-82 -21 -138 -48 -205 -99 -93 -71 -148 -151 -184 -271
-21 -68 -21 -79 -21 -1330 0 -1390 -4 -1299 61 -1429 102 -201 381 -320 620
-263 70 16 4 -22 897 519 415 251 755 457 758 457 2 0 4 -114 4 -252 0 -178 4
-273 14 -319 46 -214 222 -389 434 -430 36 -7 102 -10 158 -7 83 5 103 10 162
40 77 39 1624 993 1694 1044 54 40 144 135 189 200 43 63 94 177 113 255 23
93 21 256 -3 352 -39 152 -143 319 -253 407 -31 25 -420 269 -865 544 -444
274 -830 514 -857 532 -74 52 -141 68 -261 61 -258 -14 -436 -157 -508 -407
-5 -19 -12 -158 -16 -308 l-6 -273 -770 467 c-423 257 -797 479 -830 492 -74
31 -237 40 -325 18z m987 -924 c442 -272 822 -513 844 -535 23 -21 53 -64 67
-95 23 -48 27 -71 27 -142 0 -102 -27 -171 -93 -235 -23 -23 -392 -257 -844
-535 -603 -372 -811 -496 -838 -498 -46 -3 -97 29 -116 73 -21 50 -21 2338 0
2389 21 51 85 90 130 79 10 -3 381 -228 823 -501z m1598 463 c27 -18 388 -241
800 -494 843 -519 837 -515 876 -642 17 -55 20 -84 15 -127 -10 -84 -54 -171
-112 -220 -27 -23 -393 -254 -814 -513 -421 -258 -777 -479 -792 -490 -59 -41
-148 -12 -177 58 -8 21 -11 340 -9 1210 l3 1182 30 31 c32 33 78 51 110 43 11
-3 42 -20 70 -38z"/>
</g>
</svg>
