<?xml version="1.0" standalone="no"?>
<!DOCTYPE svg PUBLIC "-//W3C//DTD SVG 20010904//EN"
 "http://www.w3.org/TR/2001/REC-SVG-20010904/DTD/svg10.dtd">
<svg version="1.0" xmlns="http://www.w3.org/2000/svg"
 width="50.000000pt" height="50.000000pt" viewBox="0 0 50.000000 50.000000"
 preserveAspectRatio="xMidYMid meet">
<metadata>
Created by potrace 1.16, written by Peter Selinger 2001-2019
</metadata>
<g transform="translate(0.000000,50.000000) scale(0.100000,-0.100000)"
fill="#000000" stroke="none">
<path d="M30 400 c0 -19 7 -20 220 -20 213 0 220 1 220 20 0 19 -7 20 -220 20
-213 0 -220 -1 -220 -20z"/>
<path d="M30 250 c0 -19 7 -20 220 -20 213 0 220 1 220 20 0 19 -7 20 -220 20
-213 0 -220 -1 -220 -20z"/>
<path d="M30 100 c0 -19 7 -20 220 -20 213 0 220 1 220 20 0 19 -7 20 -220 20
-213 0 -220 -1 -220 -20z"/>
</g>
</svg>
