<?xml version="1.0" standalone="no"?>
<!DOCTYPE svg PUBLIC "-//W3C//DTD SVG 20010904//EN"
 "http://www.w3.org/TR/2001/REC-SVG-20010904/DTD/svg10.dtd">
<svg version="1.0" xmlns="http://www.w3.org/2000/svg"
 width="512.000000pt" height="512.000000pt" viewBox="0 0 512.000000 512.000000"
 preserveAspectRatio="xMidYMid meet">
<metadata>
Created by potrace 1.16, written by Peter Selinger 2001-2019
</metadata>
<g transform="translate(0.000000,512.000000) scale(0.100000,-0.100000)"
fill="#000000" stroke="none">
<path d="M1206 3990 c-626 -269 -1147 -497 -1158 -507 -33 -29 -48 -69 -48
-123 0 -57 18 -99 53 -127 13 -10 186 -88 385 -173 l362 -155 0 -521 0 -521
23 -34 c32 -47 215 -161 432 -269 265 -130 469 -199 745 -251 158 -29 513 -37
685 -16 399 51 810 206 1188 450 138 90 127 33 127 642 l0 521 151 64 c84 36
156 67 160 68 5 2 9 -308 9 -690 l-1 -693 -239 -400 c-235 -392 -240 -401
-240 -455 0 -65 24 -110 72 -140 32 -19 52 -20 568 -20 516 0 536 1 568 20 49
30 72 75 72 141 0 56 -2 61 -240 457 l-240 401 0 759 0 760 58 28 c75 38 102
78 102 153 0 61 -22 109 -62 135 -13 8 -533 233 -1156 500 -1023 439 -1139
486 -1185 485 -46 0 -193 -61 -1191 -489z m1921 -162 l707 -303 -750 -5 c-834
-6 -780 -1 -824 -73 -27 -43 -27 -131 0 -174 44 -72 -10 -67 824 -73 l750 -5
-717 -307 -717 -307 -905 387 c-497 213 -905 389 -905 392 0 10 1805 779 1818
775 7 -3 330 -141 719 -307z m-727 -1588 c41 0 141 40 664 264 l616 264 0
-377 0 -377 -82 -49 c-316 -189 -643 -306 -962 -345 -114 -14 -358 -14 -472 0
-319 39 -645 156 -961 345 l-83 49 0 377 0 377 616 -264 c523 -224 623 -264
664 -264z m2158 -1093 c39 -67 81 -137 93 -154 l21 -33 -191 0 -190 0 92 155
c51 85 94 154 97 154 3 1 38 -54 78 -122z"/>
</g>
</svg>
