<?xml version="1.0" standalone="no"?>
<!DOCTYPE svg PUBLIC "-//W3C//DTD SVG 20010904//EN"
 "http://www.w3.org/TR/2001/REC-SVG-20010904/DTD/svg10.dtd">
<svg version="1.0" xmlns="http://www.w3.org/2000/svg"
 width="512.000000pt" height="512.000000pt" viewBox="0 0 512.000000 512.000000"
 preserveAspectRatio="xMidYMid meet">
<metadata>
Created by potrace 1.16, written by Peter Selinger 2001-2019
</metadata>
<g transform="translate(0.000000,512.000000) scale(0.100000,-0.100000)"
fill="#000000" stroke="none">
<path d="M1215 3986 c-78 -35 -115 -130 -85 -213 6 -15 275 -292 603 -620
l592 -593 -597 -597 c-530 -532 -597 -602 -604 -636 -23 -132 71 -226 203
-203 34 7 104 74 635 604 l598 597 602 -602 c598 -597 603 -602 651 -608 120
-18 210 72 192 193 -6 46 -16 56 -608 650 l-602 602 597 598 c530 531 597 601
604 635 23 132 -71 226 -203 203 -34 -7 -104 -74 -636 -604 l-597 -597 -593
592 c-328 328 -605 597 -620 603 -38 14 -96 12 -132 -4z"/>
</g>
</svg>
