<svg version="1.1" xmlns="http://www.w3.org/2000/svg" xmlns:xlink="http://www.w3.org/1999/xlink" width="50.000000pt" height="50.000000pt" viewBox="0,0,256,256"><g fill="#86888a" fill-rule="nonzero" stroke="none" stroke-width="1" stroke-linecap="butt" stroke-linejoin="miter" stroke-miterlimit="10" stroke-dasharray="" stroke-dashoffset="0" font-family="none" font-weight="none" font-size="none" text-anchor="none" style="mix-blend-mode: normal"><g transform="scale(5.12,5.12)"><g transform="translate(0,50) scale(0.1,-0.1)"><path d="M30,400c0,-19 7,-20 220,-20c213,0 220,1 220,20c0,19 -7,20 -220,20c-213,0 -220,-1 -220,-20z"></path><path d="M30,250c0,-19 7,-20 220,-20c213,0 220,1 220,20c0,19 -7,20 -220,20c-213,0 -220,-1 -220,-20z"></path><path d="M30,100c0,-19 7,-20 220,-20c213,0 220,1 220,20c0,19 -7,20 -220,20c-213,0 -220,-1 -220,-20z"></path></g></g></g></svg>