<?xml version="1.0" standalone="no"?>
<!DOCTYPE svg PUBLIC "-//W3C//DTD SVG 20010904//EN"
 "http://www.w3.org/TR/2001/REC-SVG-20010904/DTD/svg10.dtd">
<svg version="1.0" xmlns="http://www.w3.org/2000/svg"
 width="512.000000pt" height="512.000000pt" viewBox="0 0 512.000000 512.000000"
 preserveAspectRatio="xMidYMid meet">
<metadata>
Created by potrace 1.16, written by Peter Selinger 2001-2019
</metadata>
<g transform="translate(0.000000,512.000000) scale(0.100000,-0.100000)"
fill="#000000" stroke="none">
<path d="M2075 4547 c-490 -208 -551 -236 -564 -262 -23 -47 3 -532 44 -840
l7 -50 -484 -244 c-713 -360 -741 -375 -767 -421 -21 -38 -21 -41 -21 -734 l0
-696 -85 0 c-134 0 -125 27 -125 -380 0 -323 1 -341 19 -359 29 -29 66 -33
304 -29 210 3 217 4 239 26 23 22 23 25 26 340 2 174 0 327 -3 340 -12 49 -39
62 -125 62 l-80 0 0 575 0 575 333 -167 332 -168 5 -605 c3 -377 9 -611 15
-622 14 -24 652 -497 700 -519 47 -22 154 -25 206 -7 19 6 161 79 315 160
l282 149 326 -163 c325 -162 326 -162 393 -162 47 0 82 7 113 21 38 17 653
465 700 509 13 13 16 100 20 626 l5 612 394 201 c293 149 399 207 414 229 29
41 35 131 12 180 -23 48 -34 54 -733 407 -538 272 -582 296 -577 316 15 62 46
266 56 370 6 64 9 195 7 290 -4 168 -5 174 -29 197 -23 23 -1081 476 -1110
476 -8 0 -261 -105 -564 -233z m1036 -148 c261 -111 480 -204 488 -207 11 -4
13 -40 8 -201 -8 -278 -42 -474 -127 -732 -154 -468 -435 -832 -769 -996 l-54
-27 -93 48 c-538 274 -780 649 -858 1329 -16 135 -40 567 -32 574 2 3 220 96
483 208 263 112 479 204 479 204 1 1 215 -89 475 -200z m1160 -1451 c329 -167
597 -303 596 -304 -6 -5 -2197 -1114 -2201 -1114 -4 0 -2196 1108 -2203 1114
0 0 255 131 567 289 l569 288 11 -43 c99 -392 327 -706 678 -936 123 -80 328
-182 366 -182 45 0 212 84 320 161 280 200 518 540 656 937 18 50 35 92 38 92
3 0 274 -136 603 -302z m-2304 -1259 l654 -331 57 5 c50 4 131 42 699 331 353
179 644 326 647 326 3 0 6 -234 6 -520 l0 -521 -307 -229 c-170 -126 -321
-232 -337 -236 -25 -5 -84 21 -373 165 -189 94 -356 171 -370 171 -15 0 -159
-70 -331 -161 -167 -89 -316 -164 -331 -169 -17 -5 -39 -3 -57 5 -17 7 -164
112 -327 233 l-297 222 0 520 c0 286 3 520 6 520 3 0 300 -149 661 -331z
m-1467 -774 l0 -215 -130 0 -130 0 0 215 0 215 130 0 130 0 0 -215z"/>
<path d="M2839 3650 c-129 -132 -233 -230 -244 -230 -10 0 -47 33 -84 73 -153
168 -175 187 -215 187 -47 0 -86 -36 -86 -79 0 -36 40 -88 176 -228 83 -85
106 -104 144 -114 57 -14 132 -6 173 20 18 11 134 123 260 248 221 223 227
230 227 269 0 53 -31 84 -86 84 -38 1 -45 -6 -265 -230z"/>
</g>
</svg>
