<?xml version="1.0" standalone="no"?>
<!DOCTYPE svg PUBLIC "-//W3C//DTD SVG 20010904//EN"
 "http://www.w3.org/TR/2001/REC-SVG-20010904/DTD/svg10.dtd">
<svg version="1.0" xmlns="http://www.w3.org/2000/svg"
 width="512.000000pt" height="512.000000pt" viewBox="0 0 512.000000 512.000000"
 preserveAspectRatio="xMidYMid meet">
<metadata>
Created by potrace 1.16, written by Peter Selinger 2001-2019
</metadata>
<g transform="translate(0.000000,512.000000) scale(0.100000,-0.100000)"
fill="#000000" stroke="none">
<path d="M2453 4845 c-145 -31 -103 6 -1166 -1054 -538 -537 -987 -990 -998
-1008 -22 -35 -27 -111 -11 -153 31 -77 129 -119 209 -89 16 5 458 439 1008
989 877 876 984 980 1023 990 97 25 29 86 1107 -990 539 -538 990 -983 1002
-989 31 -16 109 -14 143 4 76 39 109 140 72 217 -16 31 -299 320 -1004 1024
-1073 1070 -1026 1028 -1175 1059 -82 18 -129 18 -210 0z"/>
<path d="M780 2278 c-24 -13 -53 -36 -64 -51 -21 -28 -21 -39 -24 -780 -2
-515 1 -769 9 -805 37 -182 198 -337 383 -371 41 -8 502 -11 1480 -11 1549 0
1500 -1 1608 57 122 66 220 195 247 325 8 36 11 290 9 805 -3 741 -3 752 -24
780 -25 35 -98 73 -139 73 -47 0 -117 -40 -140 -80 -19 -34 -20 -55 -25 -782
-5 -734 -5 -747 -26 -774 -11 -15 -33 -37 -48 -48 -27 -21 -29 -21 -1465 -21
l-1438 0 -36 28 c-71 54 -67 7 -67 815 l0 729 -23 43 c-26 50 -90 90 -141 90
-18 0 -52 -10 -76 -22z"/>
</g>
</svg>
