<?xml version="1.0" standalone="no"?>
<!DOCTYPE svg PUBLIC "-//W3C//DTD SVG 20010904//EN"
 "http://www.w3.org/TR/2001/REC-SVG-20010904/DTD/svg10.dtd">
<svg version="1.0" xmlns="http://www.w3.org/2000/svg"
 width="512.000000pt" height="512.000000pt" viewBox="0 0 512.000000 512.000000"
 preserveAspectRatio="xMidYMid meet">
<metadata>
Created by potrace 1.16, written by Peter Selinger 2001-2019
</metadata>
<g transform="translate(0.000000,512.000000) scale(0.100000,-0.100000)"
fill="#000000" stroke="none">
<path d="M2506 4310 c-16 -5 -40 -19 -53 -32 -55 -51 -53 -19 -53 -818 l0
-740 -744 0 -743 0 -33 -22 c-57 -39 -75 -72 -75 -138 0 -66 18 -99 75 -138
l33 -22 743 0 744 0 0 -744 0 -743 23 -33 c38 -57 71 -75 137 -75 66 0 99 18
138 75 l22 33 0 743 0 744 744 0 743 0 33 23 c57 38 75 71 75 137 0 66 -18 99
-75 138 l-33 22 -743 0 -744 0 0 744 0 743 -22 33 c-13 18 -34 41 -48 52 -30
21 -104 31 -144 18z"/>
</g>
</svg>
