<?xml version="1.0" standalone="no"?>
<!DOCTYPE svg PUBLIC "-//W3C//DTD SVG 20010904//EN"
 "http://www.w3.org/TR/2001/REC-SVG-20010904/DTD/svg10.dtd">
<svg version="1.0" xmlns="http://www.w3.org/2000/svg"
 width="512.000000pt" height="512.000000pt" viewBox="0 0 512.000000 512.000000"
 preserveAspectRatio="xMidYMid meet">
<metadata>
Created by potrace 1.16, written by Peter Selinger 2001-2019
</metadata>
<g transform="translate(0.000000,512.000000) scale(0.100000,-0.100000)"
fill="#000000" stroke="none">
<path d="M2340 5101 c-390 -83 -688 -372 -802 -776 -31 -110 -36 -351 -10
-476 40 -193 137 -378 269 -515 l72 -74 -32 -14 c-18 -7 -50 -19 -72 -26 -103
-33 -278 -138 -388 -233 l-59 -50 -101 17 c-203 33 -356 47 -581 53 -256 7
-276 3 -316 -62 -19 -30 -20 -51 -20 -293 l0 -261 -43 -19 c-108 -49 -202
-155 -237 -269 -18 -57 -20 -93 -20 -293 0 -200 2 -236 20 -293 35 -114 129
-220 238 -269 l42 -19 0 -261 c0 -240 2 -263 19 -292 39 -62 64 -68 285 -77
238 -9 360 -21 556 -55 438 -75 826 -222 1200 -455 133 -83 136 -84 200 -84
64 0 67 1 200 84 374 233 762 380 1200 455 196 34 318 46 556 55 221 9 246 15
285 77 17 29 19 52 19 292 l0 261 43 19 c108 49 202 155 237 269 18 57 20 93
20 293 0 200 -2 236 -20 293 -35 114 -129 220 -237 269 l-43 19 0 261 c0 242
-1 263 -20 293 -40 65 -60 69 -316 62 -225 -6 -378 -20 -581 -53 l-101 -17
-59 50 c-117 101 -285 200 -403 238 -98 32 -97 26 -17 109 132 137 229 322
269 515 17 81 19 121 15 251 -7 200 -33 301 -122 467 -149 280 -417 479 -725
537 -112 22 -310 20 -420 -3z m396 -311 c277 -69 500 -305 555 -588 18 -97 7
-280 -24 -369 -81 -234 -257 -407 -491 -485 -61 -20 -91 -23 -216 -23 -125 0
-155 3 -216 23 -234 78 -410 251 -491 485 -31 89 -42 272 -24 369 55 281 277
517 551 588 103 26 252 26 356 0z m194 -1790 c65 -5 155 -21 205 -35 101 -28
282 -113 269 -125 -5 -4 -47 -20 -94 -35 -188 -62 -453 -184 -641 -295 -56
-33 -105 -60 -109 -60 -4 0 -53 27 -109 60 -187 111 -420 218 -631 291 -52 17
-99 35 -104 40 -13 11 169 96 269 124 50 15 133 30 185 34 137 12 625 12 760
1z m-1950 -326 c228 -27 483 -82 680 -146 199 -65 478 -193 665 -306 l80 -48
3 -873 c1 -480 -1 -871 -5 -869 -5 2 -91 45 -193 95 -463 229 -932 349 -1482
379 l-128 7 0 158 0 158 43 19 c108 49 202 155 237 269 18 57 20 93 20 293 0
200 -2 236 -20 293 -35 114 -129 220 -237 269 l-43 19 0 156 0 156 128 -7 c70
-4 183 -14 252 -22z m3540 -129 l0 -154 -42 -19 c-109 -49 -203 -155 -238
-269 -18 -57 -20 -93 -20 -293 0 -200 2 -236 20 -293 35 -114 129 -220 238
-269 l42 -19 0 -158 0 -158 -127 -7 c-551 -30 -1020 -150 -1483 -379 -102 -50
-188 -93 -193 -95 -4 -2 -6 389 -5 869 l3 873 80 48 c187 113 466 241 665 306
295 96 676 161 993 170 l67 2 0 -155z m-3998 -462 c16 -10 39 -34 51 -53 21
-33 22 -47 22 -220 0 -173 -1 -187 -22 -220 -28 -46 -71 -70 -123 -70 -52 0
-95 24 -123 70 -21 33 -22 47 -22 220 0 171 2 188 21 218 44 69 130 93 196 55z
m4220 0 c16 -10 39 -34 51 -53 21 -33 22 -47 22 -220 0 -173 -1 -187 -22 -220
-28 -46 -71 -70 -123 -70 -52 0 -95 24 -123 70 -21 33 -22 47 -22 220 0 171 2
188 21 218 44 69 130 93 196 55z"/>
</g>
</svg>
