<svg version="1.1" xmlns="http://www.w3.org/2000/svg" xmlns:xlink="http://www.w3.org/1999/xlink" width="512.000000pt" height="512.000000pt" viewBox="0,0,256,256"><g fill="#86888a" fill-rule="nonzero" stroke="none" stroke-width="1" stroke-linecap="butt" stroke-linejoin="miter" stroke-miterlimit="10" stroke-dasharray="" stroke-dashoffset="0" font-family="none" font-weight="none" font-size="none" text-anchor="none" style="mix-blend-mode: normal"><g transform="translate(0.01271,0) scale(0.5,0.5)"><g transform="translate(0,512) scale(0.1,-0.1)"><path d="M737,4634c-183,-39 -318,-115 -462,-259c-146,-146 -221,-280 -259,-468c-14,-67 -16,-230 -16,-1347c0,-1379 -2,-1332 55,-1487c83,-228 320,-465 548,-548c146,-53 170,-55 820,-55c591,0 605,0 630,20c36,29 51,108 44,240c-5,104 -5,105 -38,132l-33,28h-541c-297,0 -574,5 -615,10c-220,29 -411,220 -440,440c-13,100 -13,2340 0,2440c29,220 220,411 440,440c41,5 319,10 616,10c527,0 542,1 567,20c31,25 47,91 47,198c-1,101 -13,152 -45,180l-26,22l-612,-1c-498,0 -625,-3 -680,-15z"></path><path d="M3062,4539c-46,-14 -115,-85 -130,-135c-9,-30 -12,-171 -12,-523v-481h-750c-820,0 -790,2 -854,-58c-16,-15 -37,-45 -47,-67c-17,-38 -19,-79 -19,-713c0,-735 -2,-712 58,-776c15,-16 45,-37 67,-47c38,-18 81,-19 793,-19h752v-481c0,-352 3,-493 12,-523c24,-80 115,-146 203,-146c92,0 52,-36 1028,938c620,620 924,930 937,958c26,53 26,135 0,188c-13,28 -317,338 -937,958c-793,792 -923,918 -958,927c-48,13 -98,13 -143,0z"></path></g></g></g></svg>