<?xml version="1.0" standalone="no"?>
<!DOCTYPE svg PUBLIC "-//W3C//DTD SVG 20010904//EN"
 "http://www.w3.org/TR/2001/REC-SVG-20010904/DTD/svg10.dtd">
<svg version="1.0" xmlns="http://www.w3.org/2000/svg"
 width="512.000000pt" height="512.000000pt" viewBox="0 0 512.000000 512.000000"
 preserveAspectRatio="xMidYMid meet">
<metadata>
Created by potrace 1.16, written by Peter Selinger 2001-2019
</metadata>
<g transform="translate(0.000000,512.000000) scale(0.100000,-0.100000)"
fill="#000000" stroke="none">
<path d="M1780 4649 c-308 -80 -541 -323 -604 -631 -23 -110 -23 -586 0 -696
64 -310 297 -553 608 -632 91 -23 310 -28 412 -9 144 26 308 115 418 225 105
106 176 229 218 379 20 75 22 101 22 385 0 284 -2 310 -22 385 -42 152 -109
269 -214 375 -113 114 -275 202 -422 229 -100 18 -329 13 -416 -10z m406 -310
c176 -54 325 -226 354 -409 13 -84 13 -436 0 -520 -30 -185 -177 -353 -359
-411 -95 -30 -261 -30 -351 1 -89 30 -145 65 -210 130 -63 63 -112 150 -135
235 -22 85 -22 525 0 610 53 202 226 357 430 385 80 11 196 2 271 -21z"/>
<path d="M3780 3450 l0 -300 -300 0 -300 0 0 -155 0 -155 300 0 300 0 0 -300
0 -300 155 0 155 0 0 300 0 300 300 0 300 0 0 155 0 155 -300 0 -300 0 0 300
0 300 -155 0 -155 0 0 -300z"/>
<path d="M1040 2289 c-241 -62 -436 -222 -540 -441 -77 -161 -74 -133 -78
-801 l-3 -597 1591 0 1590 0 0 564 c0 609 -2 642 -54 780 -37 98 -89 179 -170
264 -117 123 -239 194 -399 232 -79 19 -120 20 -972 19 -851 0 -893 -1 -965
-20z m1891 -307 c176 -59 312 -208 348 -380 7 -34 11 -199 11 -452 l0 -400
-1280 0 -1280 0 0 403 c0 436 3 467 56 573 71 142 227 252 389 274 33 4 427 7
875 6 813 -1 815 -1 881 -24z"/>
</g>
</svg>
