<?xml version="1.0" standalone="no"?>
<!DOCTYPE svg PUBLIC "-//W3C//DTD SVG 20010904//EN"
 "http://www.w3.org/TR/2001/REC-SVG-20010904/DTD/svg10.dtd">
<svg version="1.0" xmlns="http://www.w3.org/2000/svg"
 width="512.000000pt" height="512.000000pt" viewBox="0 0 512.000000 512.000000"
 preserveAspectRatio="xMidYMid meet">
<metadata>
Created by potrace 1.16, written by Peter Selinger 2001-2019
</metadata>
<g transform="translate(0.000000,512.000000) scale(0.100000,-0.100000)"
fill="#000000" stroke="none">
<path d="M2486 5094 c-21 -21 -26 -36 -26 -74 0 -38 5 -53 26 -74 21 -21 36
-26 74 -26 38 0 53 5 74 26 21 21 26 36 26 74 0 38 -5 53 -26 74 -21 21 -36
26 -74 26 -38 0 -53 -5 -74 -26z"/>
<path d="M1946 4885 c-42 -22 -55 -44 -56 -94 0 -42 3 -47 98 -141 62 -62 107
-99 125 -102 73 -14 127 29 127 100 0 43 -4 48 -87 134 -117 120 -146 134
-207 103z"/>
<path d="M2980 4803 c-111 -111 -123 -139 -93 -201 13 -27 28 -40 56 -49 56
-19 87 -1 195 109 87 90 92 98 92 137 0 62 -41 101 -106 101 -46 0 -49 -2
-144 -97z"/>
<path d="M701 4831 c-30 -28 -31 -32 -31 -109 0 -71 2 -82 25 -105 66 -65 166
-27 181 69 15 100 -29 174 -104 174 -30 0 -47 -7 -71 -29z"/>
<path d="M4291 4846 c-37 -20 -50 -55 -51 -128 0 -60 3 -71 28 -99 23 -26 36
-32 70 -32 81 0 118 55 110 161 -4 47 -10 60 -37 84 -35 31 -80 36 -120 14z"/>
<path d="M2491 4714 l-31 -26 0 -174 c0 -196 5 -214 66 -234 25 -9 43 -9 68 0
61 20 66 38 66 234 l0 174 -31 26 c-21 18 -42 26 -69 26 -27 0 -48 -8 -69 -26z"/>
<path d="M425 4556 c-45 -45 -45 -107 0 -152 21 -21 33 -24 100 -24 88 0 118
15 135 66 9 25 9 43 0 68 -17 51 -47 66 -135 66 -67 0 -79 -3 -100 -24z"/>
<path d="M906 4554 c-37 -38 -37 -110 0 -148 24 -24 34 -26 106 -26 75 0 81 2
109 29 23 23 29 38 29 71 0 33 -6 48 -29 71 -28 27 -34 29 -109 29 -72 0 -82
-2 -106 -26z"/>
<path d="M4003 4562 c-33 -26 -47 -74 -33 -116 17 -51 47 -66 135 -66 67 0 79
3 100 24 28 29 40 66 31 102 -4 14 -18 37 -31 50 -21 21 -33 24 -102 24 -58 0
-84 -5 -100 -18z"/>
<path d="M4479 4551 c-23 -23 -29 -38 -29 -71 0 -33 6 -48 29 -71 28 -27 34
-29 109 -29 72 0 82 2 106 26 21 21 26 36 26 74 0 38 -5 53 -26 74 -24 24 -34
26 -106 26 -75 0 -81 -2 -109 -29z"/>
<path d="M743 4373 c-12 -2 -33 -16 -47 -30 -24 -23 -26 -33 -26 -105 0 -77 1
-81 31 -109 24 -22 41 -29 71 -29 75 0 119 74 104 174 -7 44 -45 96 -72 96 -7
0 -18 2 -26 4 -7 2 -23 1 -35 -1z"/>
<path d="M4313 4373 c-12 -2 -34 -18 -48 -34 -21 -26 -25 -41 -25 -94 0 -76
14 -111 51 -131 44 -22 85 -17 120 14 27 24 33 37 37 84 9 114 -44 177 -135
161z"/>
<path d="M2410 4059 c-85 -15 -212 -62 -295 -110 -91 -52 -209 -159 -270 -243
-44 -62 -125 -219 -125 -243 0 -20 -5 -17 -72 38 -76 61 -201 123 -283 140
-77 16 -224 16 -295 0 -30 -7 -97 -33 -149 -58 -127 -61 -227 -159 -289 -283
-64 -128 -73 -176 -79 -411 -8 -302 11 -449 75 -575 35 -69 108 -158 171 -208
l61 -49 0 -62 0 -63 -157 -36 c-277 -65 -363 -102 -477 -207 -108 -99 -169
-201 -207 -344 -17 -63 -19 -112 -19 -481 l0 -411 26 -27 27 -26 418 0 419 0
0 -137 c0 -170 6 -206 38 -238 l25 -25 594 0 595 0 29 29 c23 23 29 38 29 71
0 33 -6 48 -29 71 l-29 29 -241 0 -241 0 0 208 c0 242 -4 273 -38 307 -36 36
-109 36 -146 -1 l-26 -27 0 -243 0 -244 -176 0 -177 0 6 278 c6 312 13 356 77
487 73 151 195 271 348 342 81 38 609 171 622 156 4 -4 69 -150 145 -323 178
-407 180 -413 206 -429 39 -23 99 -16 129 16 17 17 87 164 180 378 84 193 156
353 159 358 8 8 472 -100 566 -133 194 -67 369 -246 441 -451 l29 -84 3 -297
3 -298 -170 0 -171 0 0 244 0 243 -26 27 c-37 37 -110 37 -146 1 -34 -34 -38
-65 -38 -307 l0 -208 -264 0 -263 0 -27 -26 c-37 -38 -37 -110 0 -148 l27 -26
614 0 615 0 29 29 29 29 0 171 0 171 424 0 423 0 27 26 26 27 0 411 c0 369 -2
418 -19 481 -38 143 -99 245 -207 344 -114 105 -200 142 -476 207 l-158 36 0
63 0 62 61 49 c63 50 136 139 171 208 64 126 83 273 75 575 -6 235 -15 283
-79 411 -62 124 -162 222 -289 283 -52 25 -119 51 -149 58 -71 16 -218 16
-295 0 -83 -17 -208 -80 -283 -141 -35 -28 -65 -50 -66 -48 -1 2 -12 30 -25
63 -69 186 -237 368 -428 464 -112 56 -223 82 -363 86 -69 2 -150 0 -180 -6z
m345 -229 c111 -34 192 -85 281 -175 117 -117 183 -260 197 -421 l4 -51 -111
65 c-289 169 -278 164 -320 158 -32 -4 -53 -18 -110 -73 -91 -89 -131 -117
-219 -158 -120 -55 -182 -66 -394 -72 l-193 -6 0 89 c0 113 20 198 71 301 87
177 263 313 463 359 85 19 241 12 331 -16z m-1385 -413 c74 -27 125 -60 180
-118 53 -55 109 -164 93 -180 -20 -20 -198 -91 -287 -114 -123 -33 -240 -45
-434 -45 l-162 0 6 58 c12 118 56 213 134 292 127 126 307 167 470 107z m2663
6 c179 -56 301 -210 321 -405 l6 -58 -162 0 c-194 0 -311 12 -434 45 -89 23
-267 94 -287 114 -16 16 40 125 93 180 125 130 297 176 463 124z m-989 -373
l198 -115 -5 -185 c-6 -212 -17 -264 -79 -390 -62 -125 -171 -232 -299 -293
-151 -73 -279 -92 -426 -61 -238 49 -426 213 -510 446 -25 67 -27 89 -31 254
l-4 181 204 6 c230 7 310 20 438 74 94 40 229 124 275 172 16 17 32 30 35 29
4 -2 96 -55 204 -118z m-1374 -333 c0 -148 -3 -183 -20 -232 -41 -120 -115
-209 -218 -262 -84 -44 -139 -56 -240 -51 -75 3 -99 9 -163 40 -177 84 -267
247 -269 484 l0 51 223 6 c286 8 438 35 612 110 33 15 63 26 68 27 4 0 7 -78
7 -173z m1853 147 c181 -76 328 -103 615 -111 l222 -6 0 -51 c-2 -237 -92
-400 -269 -484 -64 -31 -88 -37 -163 -40 -101 -5 -156 7 -240 51 -103 53 -177
142 -218 262 -17 49 -20 84 -20 232 0 95 2 173 5 173 3 0 34 -12 68 -26z
m-1707 -671 c57 -90 120 -159 205 -225 l79 -61 0 -64 c0 -34 -2 -63 -4 -63 -2
0 -32 13 -67 30 -53 24 -269 84 -416 115 -33 7 -33 7 -33 69 l0 63 58 46 c32
26 75 69 96 97 21 27 40 50 42 50 2 0 20 -26 40 -57z m1570 7 c21 -28 64 -71
96 -97 l58 -46 0 -63 c0 -62 0 -62 -32 -69 -159 -33 -366 -91 -425 -120 l-73
-34 0 67 1 67 60 40 c75 49 186 166 234 246 20 32 38 59 40 59 1 0 20 -23 41
-50z m-2166 -242 c42 0 93 4 113 7 l37 7 0 -58 c0 -51 -10 -84 -72 -231 -40
-95 -75 -173 -79 -173 -3 0 -38 78 -78 173 -61 147 -71 181 -71 231 l0 58 37
-7 c20 -3 71 -7 113 -7z m2680 0 c42 0 93 4 113 7 l37 7 0 -58 c0 -50 -11 -84
-72 -231 -40 -95 -75 -173 -79 -173 -3 0 -38 78 -78 173 -61 147 -71 181 -71
231 l0 58 37 -7 c20 -3 71 -7 113 -7z m-1400 -172 c69 -6 186 3 268 20 l32 7
0 -102 0 -101 -115 -262 c-64 -145 -119 -266 -123 -270 -4 -3 -62 119 -129
273 l-123 280 0 94 0 93 58 -13 c31 -7 91 -16 132 -19z m-1503 -308 l100 -242
-33 -47 c-44 -60 -117 -217 -138 -296 -13 -49 -34 -210 -36 -280 0 -10 -36
-13 -145 -13 l-145 0 0 243 c0 270 -1 276 -65 297 -26 9 -44 9 -70 0 -64 -21
-65 -27 -65 -297 l0 -243 -101 0 -101 0 5 322 c5 341 8 367 58 473 30 65 139
175 209 210 48 24 367 113 411 115 10 0 45 -72 116 -242z m736 201 c92 -23
166 -43 164 -46 -3 -2 -77 -22 -164 -43 -88 -21 -185 -48 -216 -59 -32 -11
-57 -18 -57 -15 0 18 85 204 94 204 6 0 87 -18 179 -41z m1881 -51 c21 -51 40
-98 43 -105 3 -7 -21 -3 -64 11 -37 13 -131 38 -208 56 -77 18 -146 36 -154
40 -12 7 287 88 330 89 10 1 28 -29 53 -91z m806 49 c96 -24 200 -56 230 -72
70 -35 179 -145 209 -210 50 -106 53 -132 58 -473 l5 -322 -101 0 -101 0 0
243 c0 270 -1 276 -65 297 -26 9 -44 9 -70 0 -64 -21 -65 -27 -65 -297 l0
-243 -150 0 -150 0 0 78 c0 160 -57 344 -150 486 l-48 74 101 241 c55 132 105
241 111 241 6 0 90 -20 186 -43z"/>
<path d="M2158 2787 c-32 -30 -42 -59 -34 -101 17 -89 139 -110 187 -32 23 38
24 58 4 101 -28 58 -111 75 -157 32z"/>
<path d="M2834 2792 c-52 -41 -58 -106 -16 -153 78 -87 218 7 168 113 -27 56
-107 77 -152 40z"/>
<path d="M2403 2468 c-67 -18 -96 -106 -52 -162 75 -96 248 -117 360 -43 53
35 72 63 72 107 0 89 -97 134 -172 81 -36 -26 -67 -27 -106 -3 -41 25 -65 30
-102 20z"/>
<path d="M2487 174 c-68 -68 -26 -174 71 -174 35 0 49 6 73 29 65 66 20 171
-74 171 -34 0 -50 -6 -70 -26z"/>
</g>
</svg>
