<svg version="1.1" xmlns="http://www.w3.org/2000/svg" xmlns:xlink="http://www.w3.org/1999/xlink" width="512.000000pt" height="512.000000pt" viewBox="0,0,256,256"><g fill="#86888a" fill-rule="nonzero" stroke="none" stroke-width="1" stroke-linecap="butt" stroke-linejoin="miter" stroke-miterlimit="10" stroke-dasharray="" stroke-dashoffset="0" font-family="none" font-weight="none" font-size="none" text-anchor="none" style="mix-blend-mode: normal"><g transform="translate(0.025,-0.02666) scale(0.5,0.5)"><g transform="translate(0,512) scale(0.1,-0.1)"><path d="M2225,5114c-485,-49 -890,-127 -1291,-250c-66,-20 -134,-41 -153,-46c-76,-22 -307,-110 -338,-129c-18,-12 -45,-40 -59,-64l-25,-43l4,-889c3,-859 4,-893 25,-1025c86,-534 254,-970 537,-1393c332,-497 767,-881 1300,-1148c270,-135 331,-149 453,-101c106,42 347,165 467,238c244,150 422,291 635,505c544,546 880,1249 965,2021c12,108 15,298 15,966v830l-29,46c-36,57 -88,83 -321,161c-439,148 -872,246 -1330,303c-128,16 -746,29 -855,18zM2775,4706c391,-13 903,-112 1409,-273l178,-57l-5,-711c-3,-425 -10,-750 -16,-810c-42,-369 -136,-695 -296,-1020c-145,-294 -323,-544 -560,-781c-152,-153 -289,-264 -472,-384c-144,-95 -418,-240 -453,-240c-35,0 -309,145 -453,240c-185,121 -321,232 -472,384c-478,480 -762,1067 -851,1761c-12,95 -17,272 -21,840l-5,720l53,18c465,152 819,235 1229,288c152,19 468,38 550,32c19,-1 103,-5 185,-7z"></path><path d="M3460,3579c-19,-11 -275,-260 -567,-552l-533,-532l-237,237c-131,129 -252,243 -270,252c-19,10 -57,16 -94,16c-122,0 -199,-78 -199,-201c0,-55 5,-72 29,-110c37,-57 636,-652 678,-673c19,-10 57,-16 96,-16c53,0 70,5 108,29c58,38 1252,1236 1273,1278c10,19 16,57 16,94c0,79 -32,137 -94,174c-57,33 -154,35 -206,4z"></path></g></g></g></svg>