<?xml version="1.0" standalone="no"?>
<!DOCTYPE svg PUBLIC "-//W3C//DTD SVG 20010904//EN"
 "http://www.w3.org/TR/2001/REC-SVG-20010904/DTD/svg10.dtd">
<svg version="1.0" xmlns="http://www.w3.org/2000/svg"
 width="512.000000pt" height="512.000000pt" viewBox="0 0 512.000000 512.000000"
 preserveAspectRatio="xMidYMid meet">
<metadata>
Created by potrace 1.16, written by Peter Selinger 2001-2019
</metadata>
<g transform="translate(0.000000,512.000000) scale(0.100000,-0.100000)"
fill="#000000" stroke="none">
<path d="M1290 4599 c-142 -102 -316 -267 -426 -403 -133 -165 -276 -419 -343
-610 -37 -105 -84 -267 -78 -272 5 -5 267 -64 286 -64 12 0 22 22 39 86 51
193 156 409 288 596 77 108 296 328 407 407 48 35 87 65 87 67 0 9 -163 254
-169 254 -3 0 -44 -28 -91 -61z"/>
<path d="M3665 4553 c-38 -60 -75 -118 -82 -129 -13 -20 -8 -25 74 -85 117
-84 332 -301 415 -419 129 -183 233 -398 280 -583 17 -65 27 -87 39 -87 21 0
281 59 287 65 8 8 -59 226 -104 338 -149 372 -419 715 -746 950 -44 31 -83 57
-87 57 -4 0 -38 -48 -76 -107z"/>
<path d="M2420 4344 c-339 -40 -631 -167 -864 -375 -253 -226 -411 -497 -487
-834 -22 -98 -23 -115 -26 -852 l-4 -753 -145 0 -144 0 0 -155 0 -155 1810 0
1810 0 0 155 0 155 -144 0 -145 0 -4 752 c-3 731 -4 756 -25 850 -71 314 -198
545 -421 769 -226 226 -473 359 -780 420 -93 18 -353 32 -431 23z m375 -329
c428 -90 780 -404 915 -816 57 -174 60 -215 60 -976 l0 -693 -1210 0 -1210 0
0 693 c0 762 3 808 60 979 171 511 650 849 1180 834 69 -2 161 -12 205 -21z"/>
<path d="M1964 985 c24 -233 183 -439 399 -515 87 -31 267 -39 357 -15 167 43
316 165 388 316 43 89 62 162 62 234 l0 45 -155 0 -155 0 0 -38 c0 -50 -51
-153 -93 -188 -18 -15 -56 -38 -86 -52 -46 -21 -64 -24 -130 -20 -84 5 -121
20 -182 75 -48 44 -85 111 -94 176 l-7 47 -156 0 -155 0 7 -65z"/>
</g>
</svg>
