<?xml version="1.0" standalone="no"?>
<!DOCTYPE svg PUBLIC "-//W3C//DTD SVG 20010904//EN"
 "http://www.w3.org/TR/2001/REC-SVG-20010904/DTD/svg10.dtd">
<svg version="1.0" xmlns="http://www.w3.org/2000/svg"
 width="512.000000pt" height="512.000000pt" viewBox="0 0 512.000000 512.000000"
 preserveAspectRatio="xMidYMid meet">
<metadata>
Created by potrace 1.16, written by Peter Selinger 2001-2019
</metadata>
<g transform="translate(0.000000,512.000000) scale(0.100000,-0.100000)"
fill="#000000" stroke="none">
<path d="M1152 2859 c-204 -79 -260 -370 -102 -529 160 -159 452 -102 529 105
64 171 -16 365 -174 424 -74 28 -180 28 -253 0z"/>
<path d="M2432 2859 c-204 -79 -260 -370 -102 -529 160 -159 452 -102 529 105
47 124 19 266 -69 355 -89 88 -235 116 -358 69z"/>
<path d="M3712 2859 c-204 -79 -260 -370 -102 -529 160 -159 452 -102 529 105
47 124 19 266 -69 355 -89 88 -235 116 -358 69z"/>
</g>
</svg>
